<svg xmlns="http://www.w3.org/2000/svg" viewBox="0 0 203.95 201.13"><g id="Layer_2" data-name="Layer 2"><g id="图层_1" data-name="图层 1"><rect x="56.73" y="57.5" width="91.23" height="1.7" transform="translate(-5.32 10.52) rotate(-5.74)" fill="#0b70ff"/><polygon points="48.86 176.15 47.77 174.85 198.58 49.55 175.66 51.85 175.49 50.16 203.94 47.3 48.86 176.15" fill="#0b70ff"/><path d="M60.84,190.35a89.56,89.56,0,0,1-10-.58l.19-1.69c14.81,1.66,34.93.46,46.71-14.65s12.78-40.75,3.08-76.47a181.17,181.17,0,0,1-16.58-15.1C67.68,65,52.29,44.57,44.12,28.6c-5.29-10.33-6.48-20.19-3-25.1a7.09,7.09,0,0,1,7-2.93c10.14,1.3,27.15,19.21,44.5,65.6Q98.54,82,102.34,95.93c8.54,6.66,15.28,9.95,18.67,8.82,2.23-.74,6.32-7.64-3.74-55.57l1.67-.35c11.46,54.58,4.8,56.8,2.61,57.53-3.3,1.1-8.53-.79-15.56-5.61-.95-.65-1.92-1.35-2.92-2.1,9.22,35.18,7.91,60.61-3.94,75.83C89.38,187,74.28,190.35,60.84,190.35ZM46.92,2.19a5.14,5.14,0,0,0-4.43,2.28c-2.35,3.35-2.94,11.47,3.14,23.36C53.73,43.66,69,63.91,85.5,80.67a185.31,185.31,0,0,0,14.58,13.45Q96.45,81.28,91,66.76C73.91,21,57.1,3.44,47.89,2.26A8.2,8.2,0,0,0,46.92,2.19Z" fill="#0b70ff"/><path d="M0,69.47,107.17,0l.3,1.12s1.26,4.63,3.07,11.75l-1.65.42c-1.28-5-2.28-8.82-2.76-10.6L6.82,67.07l21-2.11L28,66.65Z" fill="#0b70ff"/><path d="M120.65,35.29a5.17,5.17,0,0,0-.94-2c-1.44-2.13-4.91-3.27-7.4-4l-.94-.24a17.39,17.39,0,0,1-4.07-1.36,3.33,3.33,0,0,1-2-3,3.15,3.15,0,0,1,.06-.61v0a2.76,2.76,0,0,1,.08-.27v-.06a3.7,3.7,0,0,1,.87-1.37,6.26,6.26,0,0,1,4.44-1.6h0a9.34,9.34,0,0,1,3.85.91A10.27,10.27,0,0,1,117.84,24l0,2.59h2.19V18.87h-2.19V20.6a.12.12,0,0,1,0,.1.09.09,0,0,1-.09,0A11.28,11.28,0,0,0,114.6,19a11.82,11.82,0,0,0-3.74-.65,11.61,11.61,0,0,0-3.64.49A7.26,7.26,0,0,0,105,20.09a5.88,5.88,0,0,0-1.7,2.14,6.05,6.05,0,0,0-.58,2.56,5.55,5.55,0,0,0,.19,1.56,5.77,5.77,0,0,0,.76,1.57,1.43,1.43,0,0,0,.14.2l0,0c1.46,2,4.73,2.92,7.14,3.58l.6.17.57.15a23.45,23.45,0,0,1,3.66,1.22,4.33,4.33,0,0,1,1.6,1.21,3.81,3.81,0,0,1,.79,1.69A3.66,3.66,0,0,1,118,38a4.61,4.61,0,0,1-1.14,1.8,5.55,5.55,0,0,1-2,1.12,8.39,8.39,0,0,1-2.16.38,10.82,10.82,0,0,1-3.48-.39,10.2,10.2,0,0,1-4.81-3.21c0-.07-.09-.13-.09-.18l0-2.21h-2.18V43.4h2.18V41a9.59,9.59,0,0,0,3.25,1.92,13,13,0,0,0,4.28.82h.18a9.63,9.63,0,0,0,6.43-1.93A6.61,6.61,0,0,0,120,39.84a6.7,6.7,0,0,0,.72-2.27A6.21,6.21,0,0,0,120.65,35.29ZM116.86,34l0,0Zm-.4-.31,0,0Zm-.43-.26-.06,0Zm1.19.93,0-.06Zm-2.08,6.54.08,0Zm.52-.22.09,0Zm.49-.27.09-.06Zm.46-.33.08-.06Z"/><path d="M170.84,56.17a5.3,5.3,0,0,0-.93-2c-1.44-2.14-4.92-3.28-7.41-3.95l-.94-.24a17.55,17.55,0,0,1-4.07-1.36,3.33,3.33,0,0,1-2-3,3.08,3.08,0,0,1,.06-.61v0a1.28,1.28,0,0,1,.07-.28v-.05a3.7,3.7,0,0,1,.87-1.37,6.26,6.26,0,0,1,4.44-1.6H161a9.48,9.48,0,0,1,3.84.9A10.34,10.34,0,0,1,168,44.88l0,2.59h2.19V39.75h-2.19v1.73a.12.12,0,0,1-.05.1s-.06,0-.09,0a11.83,11.83,0,0,0-3.12-1.68,12.11,12.11,0,0,0-3.74-.64,11.61,11.61,0,0,0-3.64.49A7.06,7.06,0,0,0,155.15,41a5.93,5.93,0,0,0-1.7,2.13,6.1,6.1,0,0,0-.58,2.57,5.55,5.55,0,0,0,.19,1.56,6.06,6.06,0,0,0,.76,1.57,2.43,2.43,0,0,0,.14.2l0,0c1.46,2,4.73,2.91,7.14,3.58l.6.16.57.16A23.45,23.45,0,0,1,166,54.15a4.25,4.25,0,0,1,1.6,1.21,3.7,3.7,0,0,1,.79,1.69,3.62,3.62,0,0,1-.14,1.84,4.64,4.64,0,0,1-1.14,1.81,5.43,5.43,0,0,1-1.95,1.11,8.05,8.05,0,0,1-2.17.39,11.11,11.11,0,0,1-3.48-.39,10.14,10.14,0,0,1-4.81-3.22.47.47,0,0,1-.09-.17l0-2.22h-2.18v8.08h2.18V61.85a9.59,9.59,0,0,0,3.25,1.92,13,13,0,0,0,4.28.82h.19a9.6,9.6,0,0,0,6.42-1.93,6.71,6.71,0,0,0,2.26-4.21A6.21,6.21,0,0,0,170.84,56.17Zm-3.79-1.33,0,0Zm-.4-.31,0,0Zm-.43-.26-.06,0Zm1.2.92-.06-.06Zm-2.08,6.55.07,0Zm.51-.22.09-.05Zm.49-.27.09-.06Zm.47-.33.07-.06Z"/><path d="M53.09,76l-6.18-9.35A6.74,6.74,0,0,0,50,66.07a6.6,6.6,0,0,0,3.1-2.84,7.43,7.43,0,0,0,.82-3.42,7.13,7.13,0,0,0-2.06-5,7.7,7.7,0,0,0-5.45-1.93h-12v2.59h2.55V76.05H34.16v2.16h8V76.05H39.61V66.7h4.32L50,76.05H47.23v2.16h8.64V76.05H53.18A.11.11,0,0,1,53.09,76ZM39.61,55.34h6.62a4.8,4.8,0,0,1,4.4,2.2,4.6,4.6,0,0,1-.08,4.54,3.89,3.89,0,0,1-3.9,2.13h-7Z"/><path d="M46.66,193.58a6.31,6.31,0,0,0-4.17-6.31,5.56,5.56,0,0,0,3.18-5c0-4.53-3.8-6.93-8.76-6.93A9,9,0,0,0,29.35,179l2.07,1.34a6.24,6.24,0,0,1,5.49-2.63c3.6,0,6.16,1.47,6.16,4.25s-2.56,4.15-5.19,4.15H34.31v2.56h3.78c3.35,0,6,1.8,5.9,4.87-.18,3.26-3.05,5-6.81,5a9.55,9.55,0,0,1-7.1-2.9l-.11,0-1.75,1.92.08,0a12.69,12.69,0,0,0,8.88,3.59C42.36,201.13,46.66,198.32,46.66,193.58Z"/></g></g></svg>